<svg xmlns="http://www.w3.org/2000/svg" version="1.1" xmlns:xlink="http://www.w3.org/1999/xlink" xmlns:svgjs="http://svgjs.dev/svgjs" width="1440" height="800" preserveAspectRatio="none" viewBox="0 0 1440 800"><g mask="url(&quot;#SvgjsMask1011&quot;)" fill="none"><rect width="1440" height="800" x="0" y="0" fill="rgba(226, 83, 0, 1)"></rect><path d="M132.42 89.34L197.38 126.84L197.38 201.84L132.42 239.34L67.47 201.84L67.47 126.84zM132.42 539.34L197.38 576.84L197.38 651.84L132.42 689.34L67.47 651.84L67.47 576.84zM132.42 764.34L197.38 801.84L197.38 876.84L132.42 914.34L67.47 876.84L67.47 801.84zM262.33 89.34L327.28 126.84L327.28 201.84L262.33 239.34L197.38 201.84L197.38 126.84zM262.33 764.34L327.28 801.84L327.28 876.84L262.33 914.34L197.38 876.84L197.38 801.84zM327.28 201.84L392.24 239.34L392.24 314.34L327.28 351.84L262.33 314.34L262.33 239.34zM457.19 -23.16L522.15 14.34L522.15 89.34L457.19 126.84L392.24 89.34L392.24 14.34zM457.19 201.84L522.15 239.34L522.15 314.34L457.19 351.84L392.24 314.34L392.24 239.34zM522.15 314.34L587.1 351.84L587.1 426.84L522.15 464.34L457.19 426.84L457.19 351.84zM522.15 539.34L587.1 576.84L587.1 651.84L522.15 689.34L457.19 651.84L457.19 576.84zM587.1 201.84L652.05 239.34L652.05 314.34L587.1 351.84L522.15 314.34L522.15 239.34zM652.05 314.34L717.01 351.84L717.01 426.84L652.05 464.34L587.1 426.84L587.1 351.84zM587.1 651.84L652.05 689.34L652.05 764.34L587.1 801.84L522.15 764.34L522.15 689.34zM652.05 764.34L717.01 801.84L717.01 876.84L652.05 914.34L587.1 876.84L587.1 801.84zM717.01 201.84L781.96 239.34L781.96 314.34L717.01 351.84L652.05 314.34L652.05 239.34zM717.01 426.84L781.96 464.34L781.96 539.34L717.01 576.84L652.05 539.34L652.05 464.34zM781.96 539.34L846.92 576.84L846.92 651.84L781.96 689.34L717.01 651.84L717.01 576.84zM846.91 201.84L911.87 239.34L911.87 314.34L846.91 351.84L781.96 314.34L781.96 239.34zM911.87 314.34L976.82 351.84L976.82 426.84L911.87 464.34L846.91 426.84L846.91 351.84zM911.87 764.34L976.82 801.84L976.82 876.84L911.87 914.34L846.91 876.84L846.91 801.84zM1041.78 89.34L1106.73 126.84L1106.73 201.84L1041.78 239.34L976.82 201.84L976.82 126.84zM976.82 201.84L1041.78 239.34L1041.78 314.34L976.82 351.84L911.87 314.34L911.87 239.34zM976.82 426.84L1041.78 464.34L1041.78 539.34L976.82 576.84L911.87 539.34L911.87 464.34zM1041.78 539.34L1106.73 576.84L1106.73 651.84L1041.78 689.34L976.82 651.84L976.82 576.84zM1106.73 201.84L1171.68 239.34L1171.68 314.34L1106.73 351.84L1041.78 314.34L1041.78 239.34zM1106.73 426.84L1171.68 464.34L1171.68 539.34L1106.73 576.84L1041.78 539.34L1041.78 464.34zM1171.68 539.34L1236.64 576.84L1236.64 651.84L1171.68 689.34L1106.73 651.84L1106.73 576.84zM1171.68 764.34L1236.64 801.84L1236.64 876.84L1171.68 914.34L1106.73 876.84L1106.73 801.84zM1236.64 -23.16L1301.59 14.34L1301.59 89.34L1236.64 126.84L1171.68 89.34L1171.68 14.34zM1236.64 201.84L1301.59 239.34L1301.59 314.34L1236.64 351.84L1171.68 314.34L1171.68 239.34zM1236.64 426.84L1301.59 464.34L1301.59 539.34L1236.64 576.84L1171.68 539.34L1171.68 464.34zM1236.64 651.84L1301.59 689.34L1301.59 764.34L1236.64 801.84L1171.68 764.34L1171.68 689.34zM1301.59 764.34L1366.54 801.84L1366.54 876.84L1301.59 914.34L1236.64 876.84L1236.64 801.84zM1431.5 314.34L1496.45 351.84L1496.45 426.84L1431.5 464.34L1366.55 426.84L1366.55 351.84zM1431.5 539.34L1496.45 576.84L1496.45 651.84L1431.5 689.34L1366.55 651.84L1366.55 576.84zM1496.45 426.84L1561.41 464.34L1561.41 539.34L1496.45 576.84L1431.5 539.34L1431.5 464.34zM1561.41 764.34L1626.36 801.84L1626.36 876.84L1561.41 914.34L1496.45 876.84L1496.45 801.84z" stroke="rgba(141, 52, 0, 1)" stroke-width="2"></path><path d="M124.92 89.34 a7.5 7.5 0 1 0 15 0 a7.5 7.5 0 1 0 -15 0zM189.88 126.84 a7.5 7.5 0 1 0 15 0 a7.5 7.5 0 1 0 -15 0zM189.88 201.84 a7.5 7.5 0 1 0 15 0 a7.5 7.5 0 1 0 -15 0zM124.92 239.34 a7.5 7.5 0 1 0 15 0 a7.5 7.5 0 1 0 -15 0zM59.97 201.84 a7.5 7.5 0 1 0 15 0 a7.5 7.5 0 1 0 -15 0zM59.97 126.84 a7.5 7.5 0 1 0 15 0 a7.5 7.5 0 1 0 -15 0zM124.92 539.34 a7.5 7.5 0 1 0 15 0 a7.5 7.5 0 1 0 -15 0zM189.88 576.84 a7.5 7.5 0 1 0 15 0 a7.5 7.5 0 1 0 -15 0zM189.88 651.84 a7.5 7.5 0 1 0 15 0 a7.5 7.5 0 1 0 -15 0zM124.92 689.34 a7.5 7.5 0 1 0 15 0 a7.5 7.5 0 1 0 -15 0zM59.97 651.84 a7.5 7.5 0 1 0 15 0 a7.5 7.5 0 1 0 -15 0zM59.97 576.84 a7.5 7.5 0 1 0 15 0 a7.5 7.5 0 1 0 -15 0zM124.92 764.34 a7.5 7.5 0 1 0 15 0 a7.5 7.5 0 1 0 -15 0zM189.88 801.84 a7.5 7.5 0 1 0 15 0 a7.5 7.5 0 1 0 -15 0zM189.88 876.84 a7.5 7.5 0 1 0 15 0 a7.5 7.5 0 1 0 -15 0zM124.92 914.34 a7.5 7.5 0 1 0 15 0 a7.5 7.5 0 1 0 -15 0zM59.97 876.84 a7.5 7.5 0 1 0 15 0 a7.5 7.5 0 1 0 -15 0zM59.97 801.84 a7.5 7.5 0 1 0 15 0 a7.5 7.5 0 1 0 -15 0zM254.83 89.34 a7.5 7.5 0 1 0 15 0 a7.5 7.5 0 1 0 -15 0zM319.78 126.84 a7.5 7.5 0 1 0 15 0 a7.5 7.5 0 1 0 -15 0zM319.78 201.84 a7.5 7.5 0 1 0 15 0 a7.5 7.5 0 1 0 -15 0zM254.83 239.34 a7.5 7.5 0 1 0 15 0 a7.5 7.5 0 1 0 -15 0zM254.83 764.34 a7.5 7.5 0 1 0 15 0 a7.5 7.5 0 1 0 -15 0zM319.78 801.84 a7.5 7.5 0 1 0 15 0 a7.5 7.5 0 1 0 -15 0zM319.78 876.84 a7.5 7.5 0 1 0 15 0 a7.5 7.5 0 1 0 -15 0zM254.83 914.34 a7.5 7.5 0 1 0 15 0 a7.5 7.5 0 1 0 -15 0zM384.74 239.34 a7.5 7.5 0 1 0 15 0 a7.5 7.5 0 1 0 -15 0zM384.74 314.34 a7.5 7.5 0 1 0 15 0 a7.5 7.5 0 1 0 -15 0zM319.78 351.84 a7.5 7.5 0 1 0 15 0 a7.5 7.5 0 1 0 -15 0zM254.83 314.34 a7.5 7.5 0 1 0 15 0 a7.5 7.5 0 1 0 -15 0zM449.69 -23.16 a7.5 7.5 0 1 0 15 0 a7.5 7.5 0 1 0 -15 0zM514.65 14.34 a7.5 7.5 0 1 0 15 0 a7.5 7.5 0 1 0 -15 0zM514.65 89.34 a7.5 7.5 0 1 0 15 0 a7.5 7.5 0 1 0 -15 0zM449.69 126.84 a7.5 7.5 0 1 0 15 0 a7.5 7.5 0 1 0 -15 0zM384.74 89.34 a7.5 7.5 0 1 0 15 0 a7.5 7.5 0 1 0 -15 0zM384.74 14.34 a7.5 7.5 0 1 0 15 0 a7.5 7.5 0 1 0 -15 0zM449.69 201.84 a7.5 7.5 0 1 0 15 0 a7.5 7.5 0 1 0 -15 0zM514.65 239.34 a7.5 7.5 0 1 0 15 0 a7.5 7.5 0 1 0 -15 0zM514.65 314.34 a7.5 7.5 0 1 0 15 0 a7.5 7.5 0 1 0 -15 0zM449.69 351.84 a7.5 7.5 0 1 0 15 0 a7.5 7.5 0 1 0 -15 0zM579.6 351.84 a7.5 7.5 0 1 0 15 0 a7.5 7.5 0 1 0 -15 0zM579.6 426.84 a7.5 7.5 0 1 0 15 0 a7.5 7.5 0 1 0 -15 0zM514.65 464.34 a7.5 7.5 0 1 0 15 0 a7.5 7.5 0 1 0 -15 0zM449.69 426.84 a7.5 7.5 0 1 0 15 0 a7.5 7.5 0 1 0 -15 0zM514.65 539.34 a7.5 7.5 0 1 0 15 0 a7.5 7.5 0 1 0 -15 0zM579.6 576.84 a7.5 7.5 0 1 0 15 0 a7.5 7.5 0 1 0 -15 0zM579.6 651.84 a7.5 7.5 0 1 0 15 0 a7.5 7.5 0 1 0 -15 0zM514.65 689.34 a7.5 7.5 0 1 0 15 0 a7.5 7.5 0 1 0 -15 0zM449.69 651.84 a7.5 7.5 0 1 0 15 0 a7.5 7.5 0 1 0 -15 0zM449.69 576.84 a7.5 7.5 0 1 0 15 0 a7.5 7.5 0 1 0 -15 0zM579.6 201.84 a7.5 7.5 0 1 0 15 0 a7.5 7.5 0 1 0 -15 0zM644.55 239.34 a7.5 7.5 0 1 0 15 0 a7.5 7.5 0 1 0 -15 0zM644.55 314.34 a7.5 7.5 0 1 0 15 0 a7.5 7.5 0 1 0 -15 0zM709.51 351.84 a7.5 7.5 0 1 0 15 0 a7.5 7.5 0 1 0 -15 0zM709.51 426.84 a7.5 7.5 0 1 0 15 0 a7.5 7.5 0 1 0 -15 0zM644.55 464.34 a7.5 7.5 0 1 0 15 0 a7.5 7.5 0 1 0 -15 0zM644.55 689.34 a7.5 7.5 0 1 0 15 0 a7.5 7.5 0 1 0 -15 0zM644.55 764.34 a7.5 7.5 0 1 0 15 0 a7.5 7.5 0 1 0 -15 0zM579.6 801.84 a7.5 7.5 0 1 0 15 0 a7.5 7.5 0 1 0 -15 0zM514.65 764.34 a7.5 7.5 0 1 0 15 0 a7.5 7.5 0 1 0 -15 0zM709.51 801.84 a7.5 7.5 0 1 0 15 0 a7.5 7.5 0 1 0 -15 0zM709.51 876.84 a7.5 7.5 0 1 0 15 0 a7.5 7.5 0 1 0 -15 0zM644.55 914.34 a7.5 7.5 0 1 0 15 0 a7.5 7.5 0 1 0 -15 0zM579.6 876.84 a7.5 7.5 0 1 0 15 0 a7.5 7.5 0 1 0 -15 0zM709.51 201.84 a7.5 7.5 0 1 0 15 0 a7.5 7.5 0 1 0 -15 0zM774.46 239.34 a7.5 7.5 0 1 0 15 0 a7.5 7.5 0 1 0 -15 0zM774.46 314.34 a7.5 7.5 0 1 0 15 0 a7.5 7.5 0 1 0 -15 0zM774.46 464.34 a7.5 7.5 0 1 0 15 0 a7.5 7.5 0 1 0 -15 0zM774.46 539.34 a7.5 7.5 0 1 0 15 0 a7.5 7.5 0 1 0 -15 0zM709.51 576.84 a7.5 7.5 0 1 0 15 0 a7.5 7.5 0 1 0 -15 0zM644.55 539.34 a7.5 7.5 0 1 0 15 0 a7.5 7.5 0 1 0 -15 0zM839.42 576.84 a7.5 7.5 0 1 0 15 0 a7.5 7.5 0 1 0 -15 0zM839.42 651.84 a7.5 7.5 0 1 0 15 0 a7.5 7.5 0 1 0 -15 0zM774.46 689.34 a7.5 7.5 0 1 0 15 0 a7.5 7.5 0 1 0 -15 0zM709.51 651.84 a7.5 7.5 0 1 0 15 0 a7.5 7.5 0 1 0 -15 0zM839.41 201.84 a7.5 7.5 0 1 0 15 0 a7.5 7.5 0 1 0 -15 0zM904.37 239.34 a7.5 7.5 0 1 0 15 0 a7.5 7.5 0 1 0 -15 0zM904.37 314.34 a7.5 7.5 0 1 0 15 0 a7.5 7.5 0 1 0 -15 0zM839.41 351.84 a7.5 7.5 0 1 0 15 0 a7.5 7.5 0 1 0 -15 0zM969.32 351.84 a7.5 7.5 0 1 0 15 0 a7.5 7.5 0 1 0 -15 0zM969.32 426.84 a7.5 7.5 0 1 0 15 0 a7.5 7.5 0 1 0 -15 0zM904.37 464.34 a7.5 7.5 0 1 0 15 0 a7.5 7.5 0 1 0 -15 0zM839.41 426.84 a7.5 7.5 0 1 0 15 0 a7.5 7.5 0 1 0 -15 0zM904.37 764.34 a7.5 7.5 0 1 0 15 0 a7.5 7.5 0 1 0 -15 0zM969.32 801.84 a7.5 7.5 0 1 0 15 0 a7.5 7.5 0 1 0 -15 0zM969.32 876.84 a7.5 7.5 0 1 0 15 0 a7.5 7.5 0 1 0 -15 0zM904.37 914.34 a7.5 7.5 0 1 0 15 0 a7.5 7.5 0 1 0 -15 0zM839.41 876.84 a7.5 7.5 0 1 0 15 0 a7.5 7.5 0 1 0 -15 0zM839.41 801.84 a7.5 7.5 0 1 0 15 0 a7.5 7.5 0 1 0 -15 0zM1034.28 89.34 a7.5 7.5 0 1 0 15 0 a7.5 7.5 0 1 0 -15 0zM1099.23 126.84 a7.5 7.5 0 1 0 15 0 a7.5 7.5 0 1 0 -15 0zM1099.23 201.84 a7.5 7.5 0 1 0 15 0 a7.5 7.5 0 1 0 -15 0zM1034.28 239.34 a7.5 7.5 0 1 0 15 0 a7.5 7.5 0 1 0 -15 0zM969.32 201.84 a7.5 7.5 0 1 0 15 0 a7.5 7.5 0 1 0 -15 0zM969.32 126.84 a7.5 7.5 0 1 0 15 0 a7.5 7.5 0 1 0 -15 0zM1034.28 314.34 a7.5 7.5 0 1 0 15 0 a7.5 7.5 0 1 0 -15 0zM1034.28 464.34 a7.5 7.5 0 1 0 15 0 a7.5 7.5 0 1 0 -15 0zM1034.28 539.34 a7.5 7.5 0 1 0 15 0 a7.5 7.5 0 1 0 -15 0zM969.32 576.84 a7.5 7.5 0 1 0 15 0 a7.5 7.5 0 1 0 -15 0zM904.37 539.34 a7.5 7.5 0 1 0 15 0 a7.5 7.5 0 1 0 -15 0zM1099.23 576.84 a7.5 7.5 0 1 0 15 0 a7.5 7.5 0 1 0 -15 0zM1099.23 651.84 a7.5 7.5 0 1 0 15 0 a7.5 7.5 0 1 0 -15 0zM1034.28 689.34 a7.5 7.5 0 1 0 15 0 a7.5 7.5 0 1 0 -15 0zM969.32 651.84 a7.5 7.5 0 1 0 15 0 a7.5 7.5 0 1 0 -15 0zM1164.18 239.34 a7.5 7.5 0 1 0 15 0 a7.5 7.5 0 1 0 -15 0zM1164.18 314.34 a7.5 7.5 0 1 0 15 0 a7.5 7.5 0 1 0 -15 0zM1099.23 351.84 a7.5 7.5 0 1 0 15 0 a7.5 7.5 0 1 0 -15 0zM1099.23 426.84 a7.5 7.5 0 1 0 15 0 a7.5 7.5 0 1 0 -15 0zM1164.18 464.34 a7.5 7.5 0 1 0 15 0 a7.5 7.5 0 1 0 -15 0zM1164.18 539.34 a7.5 7.5 0 1 0 15 0 a7.5 7.5 0 1 0 -15 0zM1229.14 576.84 a7.5 7.5 0 1 0 15 0 a7.5 7.5 0 1 0 -15 0zM1229.14 651.84 a7.5 7.5 0 1 0 15 0 a7.5 7.5 0 1 0 -15 0zM1164.18 689.34 a7.5 7.5 0 1 0 15 0 a7.5 7.5 0 1 0 -15 0zM1164.18 764.34 a7.5 7.5 0 1 0 15 0 a7.5 7.5 0 1 0 -15 0zM1229.14 801.84 a7.5 7.5 0 1 0 15 0 a7.5 7.5 0 1 0 -15 0zM1229.14 876.84 a7.5 7.5 0 1 0 15 0 a7.5 7.5 0 1 0 -15 0zM1164.18 914.34 a7.5 7.5 0 1 0 15 0 a7.5 7.5 0 1 0 -15 0zM1099.23 876.84 a7.5 7.5 0 1 0 15 0 a7.5 7.5 0 1 0 -15 0zM1099.23 801.84 a7.5 7.5 0 1 0 15 0 a7.5 7.5 0 1 0 -15 0zM1229.14 -23.16 a7.5 7.5 0 1 0 15 0 a7.5 7.5 0 1 0 -15 0zM1294.09 14.34 a7.5 7.5 0 1 0 15 0 a7.5 7.5 0 1 0 -15 0zM1294.09 89.34 a7.5 7.5 0 1 0 15 0 a7.5 7.5 0 1 0 -15 0zM1229.14 126.84 a7.5 7.5 0 1 0 15 0 a7.5 7.5 0 1 0 -15 0zM1164.18 89.34 a7.5 7.5 0 1 0 15 0 a7.5 7.5 0 1 0 -15 0zM1164.18 14.34 a7.5 7.5 0 1 0 15 0 a7.5 7.5 0 1 0 -15 0zM1229.14 201.84 a7.5 7.5 0 1 0 15 0 a7.5 7.5 0 1 0 -15 0zM1294.09 239.34 a7.5 7.5 0 1 0 15 0 a7.5 7.5 0 1 0 -15 0zM1294.09 314.34 a7.5 7.5 0 1 0 15 0 a7.5 7.5 0 1 0 -15 0zM1229.14 351.84 a7.5 7.5 0 1 0 15 0 a7.5 7.5 0 1 0 -15 0zM1229.14 426.84 a7.5 7.5 0 1 0 15 0 a7.5 7.5 0 1 0 -15 0zM1294.09 464.34 a7.5 7.5 0 1 0 15 0 a7.5 7.5 0 1 0 -15 0zM1294.09 539.34 a7.5 7.5 0 1 0 15 0 a7.5 7.5 0 1 0 -15 0zM1294.09 689.34 a7.5 7.5 0 1 0 15 0 a7.5 7.5 0 1 0 -15 0zM1294.09 764.34 a7.5 7.5 0 1 0 15 0 a7.5 7.5 0 1 0 -15 0zM1359.04 801.84 a7.5 7.5 0 1 0 15 0 a7.5 7.5 0 1 0 -15 0zM1359.04 876.84 a7.5 7.5 0 1 0 15 0 a7.5 7.5 0 1 0 -15 0zM1294.09 914.34 a7.5 7.5 0 1 0 15 0 a7.5 7.5 0 1 0 -15 0zM1424 314.34 a7.5 7.5 0 1 0 15 0 a7.5 7.5 0 1 0 -15 0zM1488.95 351.84 a7.5 7.5 0 1 0 15 0 a7.5 7.5 0 1 0 -15 0zM1488.95 426.84 a7.5 7.5 0 1 0 15 0 a7.5 7.5 0 1 0 -15 0zM1424 464.34 a7.5 7.5 0 1 0 15 0 a7.5 7.5 0 1 0 -15 0zM1359.05 426.84 a7.5 7.5 0 1 0 15 0 a7.5 7.5 0 1 0 -15 0zM1359.05 351.84 a7.5 7.5 0 1 0 15 0 a7.5 7.5 0 1 0 -15 0zM1424 539.34 a7.5 7.5 0 1 0 15 0 a7.5 7.5 0 1 0 -15 0zM1488.95 576.84 a7.5 7.5 0 1 0 15 0 a7.5 7.5 0 1 0 -15 0zM1488.95 651.84 a7.5 7.5 0 1 0 15 0 a7.5 7.5 0 1 0 -15 0zM1424 689.34 a7.5 7.5 0 1 0 15 0 a7.5 7.5 0 1 0 -15 0zM1359.05 651.84 a7.5 7.5 0 1 0 15 0 a7.5 7.5 0 1 0 -15 0zM1359.05 576.84 a7.5 7.5 0 1 0 15 0 a7.5 7.5 0 1 0 -15 0zM1553.91 464.34 a7.5 7.5 0 1 0 15 0 a7.5 7.5 0 1 0 -15 0zM1553.91 539.34 a7.5 7.5 0 1 0 15 0 a7.5 7.5 0 1 0 -15 0zM1553.91 764.34 a7.5 7.5 0 1 0 15 0 a7.5 7.5 0 1 0 -15 0zM1618.86 801.84 a7.5 7.5 0 1 0 15 0 a7.5 7.5 0 1 0 -15 0zM1618.86 876.84 a7.5 7.5 0 1 0 15 0 a7.5 7.5 0 1 0 -15 0zM1553.91 914.34 a7.5 7.5 0 1 0 15 0 a7.5 7.5 0 1 0 -15 0zM1488.95 876.84 a7.5 7.5 0 1 0 15 0 a7.5 7.5 0 1 0 -15 0zM1488.95 801.84 a7.5 7.5 0 1 0 15 0 a7.5 7.5 0 1 0 -15 0z" fill="rgba(141, 52, 0, 1)"></path><path d="M37.31 124.75L80.61 149.75L80.61 199.75L37.31 224.75L-5.99 199.75L-5.99 149.75zM80.61 199.75L123.92 224.75L123.92 274.75L80.61 299.75L37.31 274.75L37.31 224.75zM37.31 574.75L80.61 599.75L80.61 649.75L37.31 674.75L-5.99 649.75L-5.99 599.75zM80.61 649.75L123.92 674.75L123.92 724.75L80.61 749.75L37.31 724.75L37.31 674.75zM123.92 -25.25L167.22 -0.25L167.22 49.75L123.92 74.75L80.61 49.75L80.61 -0.25zM123.92 124.75L167.22 149.75L167.22 199.75L123.92 224.75L80.61 199.75L80.61 149.75zM167.22 799.75L210.52 824.75L210.52 874.75L167.22 899.75L123.92 874.75L123.92 824.75zM210.52 124.75L253.82 149.75L253.82 199.75L210.52 224.75L167.22 199.75L167.22 149.75zM210.52 574.75L253.82 599.75L253.82 649.75L210.52 674.75L167.22 649.75L167.22 599.75zM253.82 799.75L297.13 824.75L297.13 874.75L253.82 899.75L210.52 874.75L210.52 824.75zM297.13 -25.25L340.43 -0.25L340.43 49.75L297.13 74.75L253.82 49.75L253.82 -0.25zM297.13 274.75L340.43 299.75L340.43 349.75L297.13 374.75L253.82 349.75L253.82 299.75zM340.43 499.75L383.73 524.75L383.73 574.75L340.43 599.75L297.13 574.75L297.13 524.75zM340.43 649.75L383.73 674.75L383.73 724.75L340.43 749.75L297.13 724.75L297.13 674.75zM340.43 799.75L383.73 824.75L383.73 874.75L340.43 899.75L297.13 874.75L297.13 824.75zM427.03 799.75L470.34 824.75L470.34 874.75L427.03 899.75L383.73 874.75L383.73 824.75zM470.34 -25.25L513.64 -0.25L513.64 49.75L470.34 74.75L427.03 49.75L427.03 -0.25zM513.64 49.75L556.94 74.75L556.94 124.75L513.64 149.75L470.34 124.75L470.34 74.75zM513.64 199.75L556.94 224.75L556.94 274.75L513.64 299.75L470.34 274.75L470.34 224.75zM470.34 424.75L513.64 449.75L513.64 499.75L470.34 524.75L427.03 499.75L427.03 449.75zM513.64 649.75L556.94 674.75L556.94 724.75L513.64 749.75L470.34 724.75L470.34 674.75zM513.64 799.75L556.94 824.75L556.94 874.75L513.64 899.75L470.34 874.75L470.34 824.75zM556.94 124.75L600.24 149.75L600.24 199.75L556.94 224.75L513.64 199.75L513.64 149.75zM556.94 424.75L600.24 449.75L600.24 499.75L556.94 524.75L513.64 499.75L513.64 449.75zM600.24 649.75L643.55 674.75L643.55 724.75L600.24 749.75L556.94 724.75L556.94 674.75zM686.85 49.75L730.15 74.75L730.15 124.75L686.85 149.75L643.55 124.75L643.55 74.75zM686.85 199.75L730.15 224.75L730.15 274.75L686.85 299.75L643.55 274.75L643.55 224.75zM643.55 274.75L686.85 299.75L686.85 349.75L643.55 374.75L600.24 349.75L600.24 299.75zM686.85 649.75L730.15 674.75L730.15 724.75L686.85 749.75L643.55 724.75L643.55 674.75zM686.85 799.75L730.15 824.75L730.15 874.75L686.85 899.75L643.55 874.75L643.55 824.75zM816.76 -25.25L860.06 -0.25L860.06 49.75L816.76 74.75L773.45 49.75L773.45 -0.25zM816.76 124.75L860.06 149.75L860.06 199.75L816.76 224.75L773.45 199.75L773.45 149.75zM860.06 499.75L903.36 524.75L903.36 574.75L860.06 599.75L816.76 574.75L816.76 524.75zM860.06 799.75L903.36 824.75L903.36 874.75L860.06 899.75L816.76 874.75L816.76 824.75zM903.36 424.75L946.66 449.75L946.66 499.75L903.36 524.75L860.06 499.75L860.06 449.75zM946.66 649.75L989.97 674.75L989.97 724.75L946.66 749.75L903.36 724.75L903.36 674.75zM989.97 124.75L1033.27 149.75L1033.27 199.75L989.97 224.75L946.66 199.75L946.66 149.75zM1033.27 349.75L1076.57 374.75L1076.57 424.75L1033.27 449.75L989.97 424.75L989.97 374.75zM1033.27 499.75L1076.57 524.75L1076.57 574.75L1033.27 599.75L989.97 574.75L989.97 524.75zM1033.27 799.75L1076.57 824.75L1076.57 874.75L1033.27 899.75L989.97 874.75L989.97 824.75zM1119.87 49.75L1163.17 74.75L1163.17 124.75L1119.87 149.75L1076.57 124.75L1076.57 74.75zM1119.87 499.75L1163.17 524.75L1163.17 574.75L1119.87 599.75L1076.57 574.75L1076.57 524.75zM1163.17 -25.25L1206.48 -0.25L1206.48 49.75L1163.17 74.75L1119.87 49.75L1119.87 -0.25zM1206.48 199.75L1249.78 224.75L1249.78 274.75L1206.48 299.75L1163.17 274.75L1163.17 224.75zM1163.17 274.75L1206.48 299.75L1206.48 349.75L1163.17 374.75L1119.87 349.75L1119.87 299.75zM1206.48 499.75L1249.78 524.75L1249.78 574.75L1206.48 599.75L1163.17 574.75L1163.17 524.75zM1206.48 649.75L1249.78 674.75L1249.78 724.75L1206.48 749.75L1163.17 724.75L1163.17 674.75zM1249.78 274.75L1293.08 299.75L1293.08 349.75L1249.78 374.75L1206.48 349.75L1206.48 299.75zM1293.08 499.75L1336.38 524.75L1336.38 574.75L1293.08 599.75L1249.78 574.75L1249.78 524.75zM1336.38 -25.25L1379.69 -0.25L1379.69 49.75L1336.38 74.75L1293.08 49.75L1293.08 -0.25zM1379.69 49.75L1422.99 74.75L1422.99 124.75L1379.69 149.75L1336.38 124.75L1336.38 74.75zM1379.69 499.75L1422.99 524.75L1422.99 574.75L1379.69 599.75L1336.38 574.75L1336.38 524.75zM1422.99 124.75L1466.29 149.75L1466.29 199.75L1422.99 224.75L1379.69 199.75L1379.69 149.75zM1466.29 199.75L1509.6 224.75L1509.6 274.75L1466.29 299.75L1422.99 274.75L1422.99 224.75zM1466.29 499.75L1509.6 524.75L1509.6 574.75L1466.29 599.75L1422.99 574.75L1422.99 524.75z" stroke="rgba(173, 64, 0, 0.78)" stroke-width="2"></path></g><defs><mask id="SvgjsMask1011"><rect width="1440" height="800" fill="#ffffff"></rect></mask></defs></svg>